<?xml version="1.0" encoding="utf-8"?>
<!-- Svg Vector Icons : http://www.onlinewebfonts.com/icon -->
<!DOCTYPE svg PUBLIC "-//W3C//DTD SVG 1.1//EN" "http://www.w3.org/Graphics/SVG/1.1/DTD/svg11.dtd">
<svg version="1.1" xmlns="http://www.w3.org/2000/svg" xmlns:xlink="http://www.w3.org/1999/xlink" x="0px" y="0px" viewBox="0 0 1000 1000" enable-background="new 0 0 1000 1000" fill="#61dafb" xml:space="preserve">
<metadata> Svg Vector Icons : http://www.onlinewebfonts.com/icon </metadata>
<g><g transform="translate(0.000000,511.000000) scale(0.100000,-0.100000)"><path d="M4361.8,4990.5c-1092.7-149.4-2042.2-622.6-2836-1413.3C816,2867.4,386.4,2073.5,171.6,1071.1C109.3,791,100,650.9,100,106.1c0-541.7,9.3-684.9,68.5-955.7c221-1018,644.4-1802.5,1357.3-2518.5c709.8-706.6,1506.7-1139.4,2518.5-1357.3c270.8-59.1,414-68.5,955.7-68.5s684.9,9.4,955.7,68.5c1998.6,432.7,3443.1,1877.2,3875.8,3875.8c59.2,270.8,68.5,414,68.5,955.7c0,541.7-9.4,684.9-68.5,955.7c-217.9,1011.8-650.6,1808.7-1357.3,2518.5c-712.9,709.8-1509.9,1142.5-2502.9,1351.1C5619.5,5006.1,4716.7,5040.3,4361.8,4990.5z M5429.6,4682.3c1108.3-118.3,2026.7-554.1,2811.1-1335.5C9489,2095.3,9912.4,333.3,9358.3-1329.1c-239.7-719.1-572.8-1257.7-1117.6-1805.6C7123.1-4249.1,5591.5-4709.9,4050.5-4392.3C2683.9-4109.1,1451.1-3134.7,847.1-1855.2C115.6-308,299.2,1491.4,1323.4,2861.1c305.1,407.8,825,884.1,1263.9,1161.2c227.2,140.1,709.8,364.2,990,454.5C4184.4,4676.1,4825.6,4744.6,5429.6,4682.3z"/><path d="M2724.3,3200.5c-21.8-24.9-146.3-270.8-280.2-541.7l-239.7-491.9l-196.1-31.1c-109-18.7-373.6-59.2-585.3-87.2c-616.4-87.2-619.5-127.6-46.7-700.4l420.3-420.3L1697,345.8c-96.5-563.5-96.5-585.3-43.6-644.4c31.1-34.3,77.8-62.3,102.7-62.3c24.9,0,280.2,121.4,563.5,270.8l519.9,267.7l523-270.9c557.2-292.6,650.6-314.4,691.1-158.8c9.3,40.5-24.9,323.7-77.8,628.9L3879.3,931l420.3,420.3c336.2,336.2,420.3,438.9,420.3,507.4c0,115.2-40.5,130.8-681.8,224.1c-298.9,43.6-547.9,80.9-551,87.2c-3.1,3.1-112.1,224.2-245.9,488.8c-130.8,264.6-261.5,507.4-289.5,538.6C2892.4,3262.7,2780.4,3265.8,2724.3,3200.5z M3309.6,1868.1c31.1-9.3,202.3-37.4,382.9-65.4c180.6-24.9,370.5-52.9,423.4-62.3l96.5-15.6l-308.2-305.1c-171.2-165-323.8-326.9-339.3-354.9c-18.7-34.2-3.1-202.4,49.8-498.1c43.6-242.8,77.8-448.3,77.8-454.5c0-6.2-189.9,87.2-420.3,208.6c-270.8,140.1-442.1,211.7-476.3,199.2c-28-12.4-217.9-109-423.4-217.9c-205.5-105.8-376.7-193-379.8-186.8c-3.1,3.1,31.1,214.8,74.7,467l80.9,460.7L1806,1385.6c-186.8,186.8-330,339.3-323.8,342.4c9.3,0,217.9,31.1,467,68.5l451.4,68.5l217.9,426.5l217.9,429.6l208.6-417.1C3169.5,2054.9,3278.5,1877.4,3309.6,1868.1z"/><path d="M7067.1,3228.5c-18.7-15.6-152.5-255.3-292.6-538.6c-140.1-283.3-258.4-516.8-261.5-519.9c-3.1-3.1-249.1-43.6-547.9-87.2c-644.5-93.4-684.9-109-684.9-224.1c0-68.5,84-171.2,420.3-507.4L6120.7,931l-96.5-551c-52.9-305.1-87.1-588.4-77.8-631.9c40.5-155.7,133.9-133.9,691.1,158.8l523,270.9L7680.4-90c283.3-149.5,538.6-270.8,563.5-270.8c24.9,0,71.6,28,102.8,62.3c52.9,59.1,52.9,80.9-43.6,644.4l-99.6,582.1l420.3,420.3c588.3,591.5,585.2,610.2-168.1,716c-277.1,40.5-538.6,80.9-582.2,93.4c-65.4,15.6-127.6,118.3-348.6,547.9c-230.4,457.6-277.1,529.2-345.5,538.6C7135.6,3247.2,7085.8,3241,7067.1,3228.5z M8050.8,1796.5c249-37.3,457.6-68.5,467-68.5c6.2-3.1-137-155.7-323.8-342.4l-342.4-342.4l80.9-460.7c43.6-252.1,77.8-463.8,74.7-467c-3.1-6.2-174.3,80.9-379.8,186.8c-205.5,109-395.4,205.5-423.4,217.9c-34.2,12.5-205.4-59.1-476.3-199.2c-230.4-121.4-420.3-214.8-420.3-208.6c0,6.2,34.2,211.7,77.8,457.6c46.7,277.1,65.4,467,49.8,498.1c-15.6,28-168.1,186.8-339.3,351.8c-358,345.5-382.9,302,211.7,386c196.1,28,379.8,62.3,404.7,74.7c24.9,15.6,137,208.6,249.1,432.7l199.2,407.8l221-426.5l217.9-429.6L8050.8,1796.5z"/><path d="M1675.2-709.6c-52.9-52.9-46.7-196.1,24.9-467c124.5-470.1,345.6-871.7,681.8-1220.3c625.7-650.6,1456.9-952.6,2618.1-952.6c1173.6,0,2001.7,305.1,2633.7,971.3c333.1,351.8,557.3,762.7,678.7,1242.1c84,339.3,59.1,463.9-90.3,463.9c-37.4,0-255.3-49.8-485.6-109c-974.4-249-1839.9-367.3-2736.4-367.3c-896.6,0-1762,118.3-2736.4,367.3C1806-662.9,1731.2-653.5,1675.2-709.6z M2509.5-1634.2v-454.5L2397.4-1933c-137,193-252.2,414-326.9,635c-90.3,255.3-93.4,252.2,189.9,183.7l249-62.3V-1634.2z M7938.8-1269.9c-68.5-217.9-199.2-470.1-336.2-663.1l-112.1-155.7v454.5v457.6l242.8,59.2c130.8,34.2,242.9,49.8,249.1,34.2C7988.6-1095.6,7969.9-1182.8,7938.8-1269.9z M3191.3-1310.4c146.3-28,314.4-56,370.5-65.4l99.6-15.6v-712.9c0-591.5-6.2-716-43.6-716c-74.7,0-591.5,273.9-688,364.2l-93.4,87.2l9.3,554.1c6.2,382.9,18.7,551,43.6,551C2908-1263.7,3045-1285.5,3191.3-1310.4z M7148-1839.6v-572.8l-140.1-96.5c-155.7-105.9-569.7-311.3-628.9-311.3c-31.1,0-40.4,155.7-40.4,716v712.9l102.7,15.6c53,9.4,205.5,37.4,333.1,62.3c127.6,21.8,264.6,43.6,305,46.7l68.5,3.1V-1839.6z M4480.1-1469.2l364.2-21.8v-778.3v-775.2l-208.6,18.7c-118.3,12.5-305.1,34.3-420.3,52.9l-211.7,34.3v762.7c0,709.8,3.1,759.6,56,744C4087.9-1441.1,4277.7-1456.7,4480.1-1469.2z M5996.2-2178.9v-759.6l-208.6-34.3c-118.3-18.7-305-40.5-420.3-52.9l-211.7-18.7v775.2v778.3l398.4,31.1c217.9,15.6,404.7,31.1,420.3,34.2C5986.8-1422.5,5996.2-1761.8,5996.2-2178.9z"/></g></g>
</svg>
